<svg width="24" height="20" viewBox="0 0 24 20" fill="none" xmlns="http://www.w3.org/2000/svg">
<path d="M0 10.1965C0 10.8638 0.255206 11.4906 0.727176 11.9626L7.64816 18.8868C8.16978 19.4084 9.01548 19.4084 9.53604 18.8868C10.0582 18.3652 10.0571 17.5157 9.53604 16.9936L3.89055 11.3502H22.6738C23.4116 11.3497 24 10.7448 24 10.0064C24 10.0048 24 9.99307 24 9.99147C24 9.25362 23.4116 8.64444 22.6738 8.64444H3.89002L9.53444 3.00429C10.0566 2.48213 10.0566 1.63536 9.53444 1.11374C9.01281 0.591045 8.16711 0.591579 7.64549 1.11427L0.727176 8.03899C0.254672 8.50989 0 9.1383 0 9.80567C0 9.87134 0 10.1308 0 10.1965Z" fill="white"/>
</svg>
